<svg width="52" height="52" viewBox="0 0 52 52" fill="none" xmlns="http://www.w3.org/2000/svg">
<path d="M43.4671 40.5113C45.8008 37.7034 47.4239 34.3748 48.1991 30.807C48.9744 27.2393 48.8789 23.5373 47.9207 20.0142C46.9626 16.4911 45.17 13.2506 42.6947 10.5669C40.2193 7.88308 37.134 5.83498 33.6997 4.59581C30.2654 3.35663 26.5831 2.96283 22.9644 3.44773C19.3458 3.93263 15.8971 5.28196 12.9102 7.38158C9.92325 9.48119 7.48597 12.2693 5.80449 15.5101C4.12301 18.7509 3.24681 22.349 3.25001 26C3.25124 31.3076 5.12159 36.4451 8.53288 40.5113L8.50038 40.5389C8.61413 40.6754 8.74413 40.7924 8.86113 40.9273C9.00738 41.0946 9.16501 41.2523 9.31613 41.4148C9.77113 41.9088 10.2391 42.3833 10.7299 42.8285C10.8794 42.965 11.0338 43.0918 11.1849 43.2218C11.7049 43.6703 12.2395 44.096 12.7936 44.4925C12.8651 44.5413 12.9301 44.6046 13.0016 44.655V44.6355C16.8076 47.3138 21.3478 48.7512 26.0016 48.7512C30.6555 48.7512 35.1957 47.3138 39.0016 44.6355V44.655C39.0731 44.6046 39.1365 44.5413 39.2096 44.4925C39.7621 44.0944 40.2984 43.6703 40.8184 43.2218C40.9695 43.0918 41.1239 42.9634 41.2734 42.8285C41.7641 42.3816 42.2321 41.9088 42.6871 41.4148C42.8383 41.2523 42.9943 41.0946 43.1421 40.9273C43.2575 40.7924 43.3891 40.6754 43.5029 40.5373L43.4671 40.5113ZM26 13C27.4463 13 28.8601 13.4289 30.0626 14.2324C31.2652 15.0359 32.2024 16.1779 32.7559 17.5141C33.3093 18.8503 33.4542 20.3206 33.172 21.7391C32.8898 23.1576 32.1934 24.4605 31.1707 25.4832C30.1481 26.5059 28.8451 27.2023 27.4266 27.4845C26.0081 27.7667 24.5378 27.6218 23.2016 27.0684C21.8655 26.5149 20.7234 25.5776 19.9199 24.3751C19.1164 23.1726 18.6875 21.7588 18.6875 20.3125C18.6875 18.3731 19.4579 16.5131 20.8293 15.1418C22.2006 13.7704 24.0606 13 26 13V13ZM13.0114 40.5113C13.0396 38.3776 13.9067 36.3408 15.4251 34.8415C16.9435 33.3423 18.9911 32.5011 21.125 32.5H30.875C33.0089 32.5011 35.0565 33.3423 36.5749 34.8415C38.0933 36.3408 38.9604 38.3776 38.9886 40.5113C35.4247 43.7228 30.7974 45.5001 26 45.5001C21.2026 45.5001 16.5753 43.7228 13.0114 40.5113V40.5113Z" fill="black"/>
</svg>
