<svg width="355" height="490" viewBox="0 0 355 490" fill="none" xmlns="http://www.w3.org/2000/svg">
<path d="M243.1 83.8999H288.3H288.4C300.8 83.8999 310.8 93.9 310.8 106.3V174.5H197.9V129C198 104.1 218.2 83.8999 243.1 83.8999Z" fill="#304E9C"/>
<path d="M284.8 83.8999L241.1 102.8V83.8999H284.8Z" fill="#293E68"/>
<path d="M310.9 174.4V286.5L348.2 448.5L308.4 471.5L266 286.5L265.9 219.4H231.9L198.3 174.4H310.9Z" fill="#383838"/>
<path d="M231.9 219.4L218.4 277.7L199.2 477.3H157.4L178.3 270L198.3 174.4L231.9 219.4Z" fill="#191919"/>
<path d="M238.3 23.9999C240.9 16.7999 247.7 11.5999 255.8 11.5999C266.1 11.5999 274.4 19.9 274.4 30.2V61.2H264V84.3999C264 84.3999 253.4 94.6 253.4 94.3V61.2H227.5L238.3 23.9999Z" fill="#D85398"/>
<path d="M246.4 31.8999C247.6 31.8999 248.6 32.8999 248.6 34.0999C248.6 35.2999 247.6 36.2999 246.4 36.2999C245.2 36.2999 244.2 35.2999 244.2 34.0999C244.2 32.8999 245.2 31.8999 246.4 31.8999Z" fill="#000851"/>
<path d="M233.3 46.7999L237 34.2999C237.2 33.6999 237.8 33.2999 238.5 33.4999C239.1 33.6999 239.5 34.3999 239.3 34.9999L235.6 47.4999C235.4 47.9999 235 48.3999 234.5 48.3999C234.4 48.3999 234.3 48.3999 234.2 48.3999C233.4 48.0999 233.1 47.3999 233.3 46.7999Z" fill="#000851"/>
<path d="M244 4.79994C248.1 4.79994 251.4 7.69994 252.2 11.4999H255.9C261.4 11.4999 266.3 13.9 269.7 17.7H269.8C272.7 21 274.5 25.2999 274.5 29.9999V60.9999H259.5V25.2C259.5 23.8 259.9 22.5999 260.5 21.4999H244C239.4 21.4999 235.6 17.7999 235.6 13.0999C235.6 8.59995 239.4 4.79994 244 4.79994Z" fill="#000851"/>
<path d="M264.1 30.5999H265.1C268.2 30.5999 270.7 33.1 270.7 36.2C270.7 39.3 268.2 41.7999 265.1 41.7999H264.1V30.5999Z" fill="#D65498"/>
<path d="M273.2 118.8C270.3 111.4 274 103 281.4 100.2C288.8 97.3 297.2 101 300 108.4L321.2 163C323.7 169.5 320.5 176.9 314 179.4C307.5 181.9 300.1 178.7 297.6 172.2C297.6 172.1 297.6 172.1 297.5 172C297.5 172 273.4 119.3 273.2 118.8Z" fill="#3B5BA3"/>
<path d="M319.9 159.7C324.7 164.8 324.4 172.8 319.3 177.6L216.1 273.9L216 274C213.3 276.5 209 276.4 206.5 273.7C204 271 204.1 266.7 206.8 264.2L206.9 264.1L206.8 264C206.8 264 301.5 159.5 301.9 159.1C307.1 154.3 315.1 154.6 319.9 159.7Z" fill="#D85398"/>
<path d="M294.1 473.9L348.2 448.5L354.7 462.4L300.7 487.8C296.9 489.6 292.3 488 290.5 484.1C288.7 480.3 290.3 475.7 294.1 473.9Z" fill="black"/>
<path d="M140.3 466.7L199.6 474.1L197.7 489.3L138.5 482C134.3 481.5 131.3 477.6 131.8 473.4C132.4 469.2 136.2 466.2 140.3 466.7Z" fill="black"/>
<path d="M154.5 -6.10352e-05L133.5 1.99994L129.4 113.4L21.8 157L121.9 215.9L109.1 333.7L130.1 331.7L217 254.7L308.7 284.7L327.7 278.7L283.4 176.2L344.8 77.7L330.7 79.0999L229.2 88.8999L154.5 -6.10352e-05Z" fill="#F2A825"/>
<path d="M133.5 1.99994L108.4 115.4L0.799957 159L100.9 217.9L109.1 333.7L196 256.7L308.7 284.7L262.4 178.2L323.8 79.7L208.2 90.8999L133.5 1.99994Z" fill="#FFBE3B"/>
<path d="M141.8 38.2999L122.2 126.9L38.2 160.9L116.3 206.9L122.7 297.4L190.6 237.2L278.6 259.1L242.4 176L290.4 98.9999L200.2 107.7L141.8 38.2999Z" fill="#FCDA4F"/>
<path d="M215.8 273.7C218.9 271.8 220 267.8 218.2 264.6C216.4 261.4 212.4 260.3 209.1 262L209 261.9C197.3 268.5 184.2 264.3 176.4 253.9L160.5 262.9C173 285.2 196.1 285 215.7 273.9L215.8 273.7Z" fill="#D85398"/>
<path d="M86.7 198.8C88.5 207.4 93.6 214.5 100.9 217.9L102 233.4C84.3999 231.3 69.8999 221 68.4999 200.1L86.7 198.8Z" fill="#C15291"/>
</svg>
