<svg width="50" height="52" viewBox="0 0 50 52" fill="none" xmlns="http://www.w3.org/2000/svg">
<path fill-rule="evenodd" clip-rule="evenodd" d="M8.56635 7.29391C10.594 7.29391 12.2377 5.66111 12.2377 3.64695C12.2377 1.6328 10.594 0 8.56635 0C6.53873 0 4.89502 1.6328 4.89502 3.64695C4.89502 5.66111 6.53873 7.29391 8.56635 7.29391ZM25 7.29391C27.0276 7.29391 28.6713 5.66111 28.6713 3.64695C28.6713 1.6328 27.0276 0 25 0C22.9724 0 21.3286 1.6328 21.3286 3.64695C21.3286 5.66111 22.9724 7.29391 25 7.29391ZM45.1049 3.64695C45.1049 5.66111 43.4612 7.29391 41.4336 7.29391C39.406 7.29391 37.7623 5.66111 37.7623 3.64695C37.7623 1.6328 39.406 0 41.4336 0C43.4612 0 45.1049 1.6328 45.1049 3.64695ZM0 10.0725H50V13.559C49.8846 13.5503 49.7681 13.5458 49.6504 13.5458C47.14 13.5458 45.105 15.5674 45.105 18.0611L45.1049 18.0611V31.2596H37.7623V18.0611C37.7623 15.5674 35.7272 13.5458 33.2168 13.5458C30.7064 13.5458 28.6714 15.5674 28.6714 18.0611L28.6713 18.0611V31.2596H21.3286V18.0611L21.3286 18.0611C21.3286 15.5674 19.2936 13.5458 16.7832 13.5458C14.2728 13.5458 12.2377 15.5674 12.2377 18.0611H12.2377V31.2596H4.89502V18.0993L4.89518 18.0611C4.89518 15.5674 2.86011 13.5458 0.349724 13.5458C0.232051 13.5458 0.115423 13.5503 0 13.559V10.0725Z" fill="#D85398"/>
<path d="M4.044 48V38.298H5.808V39.144C6.156 38.928 6.498 38.748 6.834 38.604C7.17 38.46 7.506 38.352 7.842 38.28C8.19 38.196 8.55 38.154 8.922 38.154C9.294 38.154 9.612 38.196 9.876 38.28C10.152 38.364 10.386 38.49 10.578 38.658C10.782 38.814 10.944 39.006 11.064 39.234C11.4 39.018 11.742 38.832 12.09 38.676C12.438 38.508 12.804 38.376 13.188 38.28C13.584 38.172 14.004 38.118 14.448 38.118C14.808 38.118 15.126 38.166 15.402 38.262C15.678 38.358 15.918 38.49 16.122 38.658C16.326 38.826 16.488 39.024 16.608 39.252C16.74 39.468 16.836 39.714 16.896 39.99C16.956 40.254 16.986 40.53 16.986 40.818V48H15.042V41.412C15.042 41.22 15.018 41.028 14.97 40.836C14.922 40.632 14.844 40.452 14.736 40.296C14.64 40.14 14.496 40.02 14.304 39.936C14.112 39.84 13.866 39.792 13.566 39.792C13.29 39.792 13.02 39.828 12.756 39.9C12.492 39.96 12.246 40.044 12.018 40.152C11.79 40.26 11.58 40.368 11.388 40.476C11.436 40.62 11.466 40.758 11.478 40.89C11.49 41.022 11.496 41.154 11.496 41.286V48H9.552V41.43C9.552 41.238 9.528 41.046 9.48 40.854C9.432 40.65 9.354 40.476 9.246 40.332C9.138 40.176 8.988 40.05 8.796 39.954C8.616 39.858 8.376 39.81 8.076 39.81C7.836 39.81 7.596 39.84 7.356 39.9C7.128 39.96 6.9 40.038 6.672 40.134C6.444 40.23 6.216 40.35 5.988 40.494V48H4.044ZM22.9977 48.18C22.2897 48.18 21.6657 48.09 21.1257 47.91C20.5977 47.718 20.1417 47.43 19.7577 47.046C19.3857 46.662 19.1037 46.17 18.9117 45.57C18.7197 44.958 18.6237 44.238 18.6237 43.41C18.6237 42.438 18.7377 41.616 18.9657 40.944C19.2057 40.26 19.5297 39.714 19.9377 39.306C20.3577 38.886 20.8437 38.586 21.3957 38.406C21.9597 38.214 22.5717 38.118 23.2317 38.118C24.5277 38.118 25.4817 38.454 26.0937 39.126C26.7177 39.798 27.0297 40.89 27.0297 42.402C27.0297 42.486 27.0237 42.606 27.0117 42.762C27.0117 42.906 27.0117 43.05 27.0117 43.194C26.7357 43.218 26.3817 43.248 25.9497 43.284C25.5297 43.32 25.0437 43.356 24.4917 43.392C23.9397 43.428 23.3397 43.458 22.6917 43.482C22.0437 43.506 21.3657 43.524 20.6577 43.536C20.6457 43.584 20.6397 43.638 20.6397 43.698C20.6397 43.746 20.6397 43.8 20.6397 43.86C20.6397 44.52 20.7417 45.054 20.9457 45.462C21.1497 45.858 21.4497 46.152 21.8457 46.344C22.2417 46.524 22.7397 46.614 23.3397 46.614C23.6997 46.614 24.0717 46.596 24.4557 46.56C24.8517 46.512 25.2357 46.458 25.6077 46.398C25.9797 46.326 26.3337 46.248 26.6697 46.164L26.9217 47.622C26.5617 47.73 26.1717 47.832 25.7517 47.928C25.3437 48.012 24.9117 48.072 24.4557 48.108C23.9997 48.156 23.5137 48.18 22.9977 48.18ZM20.6757 42.222C21.1797 42.222 21.6597 42.216 22.1157 42.204C22.5837 42.18 23.0157 42.156 23.4117 42.132C23.8077 42.108 24.1437 42.09 24.4197 42.078C24.7077 42.054 24.9237 42.036 25.0677 42.024C25.0557 41.424 24.9777 40.944 24.8337 40.584C24.6897 40.224 24.4737 39.966 24.1857 39.81C23.8977 39.642 23.5317 39.558 23.0877 39.558C22.8117 39.558 22.5417 39.6 22.2777 39.684C22.0137 39.756 21.7677 39.894 21.5397 40.098C21.3237 40.29 21.1377 40.56 20.9817 40.908C20.8257 41.244 20.7237 41.682 20.6757 42.222ZM28.671 48V38.298H30.435V39.144C30.831 38.928 31.209 38.748 31.569 38.604C31.929 38.448 32.295 38.328 32.667 38.244C33.039 38.16 33.429 38.118 33.837 38.118C34.437 38.118 34.935 38.226 35.331 38.442C35.739 38.658 36.045 38.964 36.249 39.36C36.465 39.756 36.573 40.242 36.573 40.818V48H34.611V41.412C34.611 40.872 34.479 40.464 34.215 40.188C33.951 39.912 33.555 39.774 33.027 39.774C32.751 39.774 32.481 39.804 32.217 39.864C31.953 39.924 31.689 40.008 31.425 40.116C31.161 40.212 30.891 40.332 30.615 40.476V48H28.671ZM37.9567 45.57C37.9567 44.982 38.0707 44.502 38.2987 44.13C38.5387 43.746 38.8987 43.446 39.3787 43.23C39.8587 43.002 40.4587 42.828 41.1787 42.708C41.8987 42.576 42.7327 42.474 43.6807 42.402V41.286C43.6807 40.794 43.5067 40.422 43.1587 40.17C42.8227 39.918 42.3247 39.792 41.6647 39.792C41.4247 39.792 41.1487 39.804 40.8367 39.828C40.5367 39.852 40.2187 39.894 39.8827 39.954C39.5467 40.014 39.2047 40.098 38.8567 40.206L38.5327 38.64C39.0487 38.472 39.5947 38.346 40.1707 38.262C40.7467 38.166 41.2867 38.118 41.7907 38.118C42.6667 38.118 43.3867 38.238 43.9507 38.478C44.5267 38.706 44.9527 39.054 45.2287 39.522C45.5167 39.99 45.6607 40.572 45.6607 41.268V45.552C45.6607 45.912 45.7147 46.158 45.8227 46.29C45.9307 46.41 46.0687 46.47 46.2367 46.47C46.2967 46.47 46.3687 46.464 46.4527 46.452C46.5367 46.44 46.6207 46.416 46.7047 46.38L46.8847 47.82C46.6927 47.928 46.4827 48.012 46.2547 48.072C46.0267 48.144 45.7807 48.18 45.5167 48.18C45.0607 48.18 44.6947 48.078 44.4187 47.874C44.1547 47.658 43.9747 47.334 43.8787 46.902C43.5787 47.13 43.2547 47.346 42.9067 47.55C42.5707 47.742 42.1987 47.892 41.7907 48C41.3947 48.12 40.9567 48.18 40.4767 48.18C40.0927 48.18 39.7447 48.12 39.4327 48C39.1327 47.892 38.8687 47.73 38.6407 47.514C38.4247 47.286 38.2567 47.01 38.1367 46.686C38.0167 46.362 37.9567 45.99 37.9567 45.57ZM39.9367 45.426C39.9367 45.894 40.0507 46.242 40.2787 46.47C40.5067 46.698 40.8127 46.812 41.1967 46.812C41.4847 46.812 41.7787 46.77 42.0787 46.686C42.3787 46.59 42.6667 46.464 42.9427 46.308C43.2307 46.14 43.4767 45.942 43.6807 45.714V43.518C43.1047 43.566 42.5887 43.626 42.1327 43.698C41.6767 43.77 41.2807 43.878 40.9447 44.022C40.6207 44.154 40.3687 44.334 40.1887 44.562C40.0207 44.79 39.9367 45.078 39.9367 45.426Z" fill="#D85398"/>
</svg>
