<svg width="482" height="93" viewBox="0 0 482 93" fill="none" xmlns="http://www.w3.org/2000/svg">
<path d="M102.1 40.04C102.1 36.168 102.657 33.044 103.772 30.668C104.916 28.2627 106.632 26.5173 108.92 25.432C111.237 24.3173 114.127 23.76 117.588 23.76C118.673 23.76 119.656 23.7893 120.536 23.848C121.445 23.9067 122.281 23.9947 123.044 24.112C123.836 24.2293 124.584 24.376 125.288 24.552C126.021 24.728 126.755 24.9333 127.488 25.168L125.728 32.208C124.819 32.0027 123.953 31.8413 123.132 31.724C122.311 31.5773 121.504 31.4747 120.712 31.416C119.949 31.3573 119.187 31.328 118.424 31.328C117.104 31.328 115.975 31.4747 115.036 31.768C114.127 32.0613 113.393 32.5453 112.836 33.22C112.279 33.8653 111.868 34.7453 111.604 35.86C111.34 36.9747 111.208 38.3533 111.208 39.996C111.208 41.4627 111.34 42.7093 111.604 43.736C111.868 44.7627 112.279 45.584 112.836 46.2C113.393 46.816 114.127 47.2707 115.036 47.564C115.945 47.828 117.045 47.96 118.336 47.96C119.597 47.96 120.932 47.872 122.34 47.696C123.748 47.4907 125.083 47.2267 126.344 46.904L127.884 53.856C127.151 54.0907 126.403 54.3107 125.64 54.516C124.877 54.692 124.056 54.8533 123.176 55C122.296 55.1467 121.328 55.2493 120.272 55.308C119.245 55.396 118.101 55.44 116.84 55.44C114.376 55.44 112.22 55.1613 110.372 54.604C108.524 54.0467 106.984 53.1667 105.752 51.964C104.52 50.732 103.596 49.1333 102.98 47.168C102.393 45.2027 102.1 42.8267 102.1 40.04ZM129.021 55L138.481 24.156H149.393L158.985 55H149.173L147.897 50.204H139.625L138.393 55H129.021ZM141.209 42.9H146.313L143.761 30.8L141.209 42.9ZM187.692 55.44C186.724 55.44 185.741 55.3227 184.744 55.088C183.776 54.8827 182.808 54.5453 181.84 54.076C180.872 53.5773 179.889 52.9467 178.892 52.184C177.924 51.392 176.926 50.4387 175.9 49.324C174.902 48.2093 173.876 46.9187 172.82 45.452C172.702 45.452 172.541 45.452 172.336 45.452C172.13 45.452 171.94 45.452 171.764 45.452C171.529 45.452 171.28 45.452 171.016 45.452C170.781 45.452 170.532 45.452 170.268 45.452V55H161.336V24.2C163.242 24.112 164.988 24.0387 166.572 23.98C168.156 23.9213 169.608 23.8773 170.928 23.848C172.248 23.8187 173.421 23.804 174.448 23.804C176.941 23.804 179.082 23.9947 180.872 24.376C182.661 24.7573 184.113 25.344 185.228 26.136C186.372 26.928 187.208 27.9547 187.736 29.216C188.264 30.448 188.528 31.9 188.528 33.572C188.528 35.2733 188.264 36.7547 187.736 38.016C187.208 39.248 186.474 40.26 185.536 41.052C184.597 41.844 183.482 42.4453 182.192 42.856C182.808 43.5307 183.409 44.1173 183.996 44.616C184.612 45.1147 185.184 45.5253 185.712 45.848C186.269 46.1707 186.797 46.42 187.296 46.596C187.824 46.7427 188.337 46.816 188.836 46.816C188.953 46.816 189.07 46.816 189.188 46.816C189.334 46.7867 189.466 46.772 189.584 46.772V55.264C189.378 55.2933 189.114 55.3227 188.792 55.352C188.498 55.4107 188.132 55.44 187.692 55.44ZM174.492 39.336C175.342 39.336 176.061 39.248 176.648 39.072C177.264 38.896 177.762 38.632 178.144 38.28C178.554 37.8987 178.848 37.4293 179.024 36.872C179.229 36.2853 179.332 35.5813 179.332 34.76C179.332 33.792 179.2 33.0147 178.936 32.428C178.672 31.812 178.188 31.372 177.484 31.108C176.809 30.8147 175.87 30.668 174.668 30.668C174.257 30.668 173.905 30.668 173.612 30.668C173.318 30.668 173.01 30.6827 172.688 30.712C172.394 30.712 172.057 30.7267 171.676 30.756C171.294 30.756 170.825 30.7853 170.268 30.844V39.204C170.649 39.2333 170.986 39.2627 171.28 39.292C171.573 39.292 171.866 39.3067 172.16 39.336C172.482 39.336 172.82 39.336 173.172 39.336C173.553 39.336 173.993 39.336 174.492 39.336ZM192.832 55V24.2H215.932V31.68H201.676V36.08H214.788V42.9H201.676V47.652H216.724V55H192.832ZM219.988 55V24.2H243.088V31.68H228.832V36.08H241.944V42.9H228.832V47.652H243.88V55H219.988ZM273.5 55.44C272.532 55.44 271.55 55.3227 270.552 55.088C269.584 54.8827 268.616 54.5453 267.648 54.076C266.68 53.5773 265.698 52.9467 264.7 52.184C263.732 51.392 262.735 50.4387 261.708 49.324C260.711 48.2093 259.684 46.9187 258.628 45.452C258.511 45.452 258.35 45.452 258.144 45.452C257.939 45.452 257.748 45.452 257.572 45.452C257.338 45.452 257.088 45.452 256.824 45.452C256.59 45.452 256.34 45.452 256.076 45.452V55H247.144V24.2C249.051 24.112 250.796 24.0387 252.38 23.98C253.964 23.9213 255.416 23.8773 256.736 23.848C258.056 23.8187 259.23 23.804 260.256 23.804C262.75 23.804 264.891 23.9947 266.68 24.376C268.47 24.7573 269.922 25.344 271.036 26.136C272.18 26.928 273.016 27.9547 273.544 29.216C274.072 30.448 274.336 31.9 274.336 33.572C274.336 35.2733 274.072 36.7547 273.544 38.016C273.016 39.248 272.283 40.26 271.344 41.052C270.406 41.844 269.291 42.4453 268 42.856C268.616 43.5307 269.218 44.1173 269.804 44.616C270.42 45.1147 270.992 45.5253 271.52 45.848C272.078 46.1707 272.606 46.42 273.104 46.596C273.632 46.7427 274.146 46.816 274.644 46.816C274.762 46.816 274.879 46.816 274.996 46.816C275.143 46.7867 275.275 46.772 275.392 46.772V55.264C275.187 55.2933 274.923 55.3227 274.6 55.352C274.307 55.4107 273.94 55.44 273.5 55.44ZM260.3 39.336C261.151 39.336 261.87 39.248 262.456 39.072C263.072 38.896 263.571 38.632 263.952 38.28C264.363 37.8987 264.656 37.4293 264.832 36.872C265.038 36.2853 265.14 35.5813 265.14 34.76C265.14 33.792 265.008 33.0147 264.744 32.428C264.48 31.812 263.996 31.372 263.292 31.108C262.618 30.8147 261.679 30.668 260.476 30.668C260.066 30.668 259.714 30.668 259.42 30.668C259.127 30.668 258.819 30.6827 258.496 30.712C258.203 30.712 257.866 30.7267 257.484 30.756C257.103 30.756 256.634 30.7853 256.076 30.844V39.204C256.458 39.2333 256.795 39.2627 257.088 39.292C257.382 39.292 257.675 39.3067 257.968 39.336C258.291 39.336 258.628 39.336 258.98 39.336C259.362 39.336 259.802 39.336 260.3 39.336ZM290.199 54.824V24.376C291.988 24.2293 293.631 24.112 295.127 24.024C296.652 23.936 298.06 23.8773 299.351 23.848C300.642 23.7893 301.83 23.76 302.915 23.76C305.936 23.76 308.356 24.024 310.175 24.552C311.994 25.0507 313.314 25.8427 314.135 26.928C314.956 28.0133 315.367 29.436 315.367 31.196C315.367 32.78 315.015 34.1293 314.311 35.244C313.636 36.3293 312.536 37.2093 311.011 37.884V37.972C312.918 38.5587 314.399 39.5413 315.455 40.92C316.511 42.2987 317.039 43.9413 317.039 45.848C317.039 47.5787 316.79 49.06 316.291 50.292C315.822 51.524 315.044 52.5213 313.959 53.284C312.874 54.0173 311.422 54.56 309.603 54.912C307.814 55.264 305.599 55.44 302.959 55.44C301.991 55.44 301.14 55.4253 300.407 55.396C299.703 55.396 299.043 55.3813 298.427 55.352C297.811 55.352 297.151 55.3227 296.447 55.264C295.743 55.2053 294.892 55.1467 293.895 55.088C292.898 55.0293 291.666 54.9413 290.199 54.824ZM299.175 36.476H304.191C304.778 36.476 305.276 36.3733 305.687 36.168C306.127 35.9627 306.45 35.6547 306.655 35.244C306.86 34.8333 306.963 34.3347 306.963 33.748C306.963 33.044 306.831 32.4867 306.567 32.076C306.303 31.636 305.863 31.328 305.247 31.152C304.66 30.9467 303.824 30.844 302.739 30.844C302.446 30.844 302.182 30.844 301.947 30.844C301.712 30.844 301.507 30.8587 301.331 30.888C301.155 30.888 300.964 30.9027 300.759 30.932C300.554 30.932 300.319 30.9467 300.055 30.976C299.791 30.976 299.498 30.9907 299.175 31.02V36.476ZM299.175 48.224C299.498 48.2533 299.82 48.2827 300.143 48.312C300.466 48.3413 300.759 48.3707 301.023 48.4C301.316 48.4 301.595 48.4 301.859 48.4C302.123 48.4 302.372 48.4 302.607 48.4C303.986 48.4 305.056 48.312 305.819 48.136C306.582 47.9307 307.11 47.6227 307.403 47.212C307.696 46.772 307.843 46.1853 307.843 45.452C307.843 44.4253 307.564 43.692 307.007 43.252C306.45 42.812 305.467 42.592 304.059 42.592H299.175V48.224ZM346.203 55.44C345.235 55.44 344.253 55.3227 343.255 55.088C342.287 54.8827 341.319 54.5453 340.351 54.076C339.383 53.5773 338.401 52.9467 337.403 52.184C336.435 51.392 335.438 50.4387 334.411 49.324C333.414 48.2093 332.387 46.9187 331.331 45.452C331.214 45.452 331.053 45.452 330.847 45.452C330.642 45.452 330.451 45.452 330.275 45.452C330.041 45.452 329.791 45.452 329.527 45.452C329.293 45.452 329.043 45.452 328.779 45.452V55H319.847V24.2C321.754 24.112 323.499 24.0387 325.083 23.98C326.667 23.9213 328.119 23.8773 329.439 23.848C330.759 23.8187 331.933 23.804 332.959 23.804C335.453 23.804 337.594 23.9947 339.383 24.376C341.173 24.7573 342.625 25.344 343.739 26.136C344.883 26.928 345.719 27.9547 346.247 29.216C346.775 30.448 347.039 31.9 347.039 33.572C347.039 35.2733 346.775 36.7547 346.247 38.016C345.719 39.248 344.986 40.26 344.047 41.052C343.109 41.844 341.994 42.4453 340.703 42.856C341.319 43.5307 341.921 44.1173 342.507 44.616C343.123 45.1147 343.695 45.5253 344.223 45.848C344.781 46.1707 345.309 46.42 345.807 46.596C346.335 46.7427 346.849 46.816 347.347 46.816C347.465 46.816 347.582 46.816 347.699 46.816C347.846 46.7867 347.978 46.772 348.095 46.772V55.264C347.89 55.2933 347.626 55.3227 347.303 55.352C347.01 55.4107 346.643 55.44 346.203 55.44ZM333.003 39.336C333.854 39.336 334.573 39.248 335.159 39.072C335.775 38.896 336.274 38.632 336.655 38.28C337.066 37.8987 337.359 37.4293 337.535 36.872C337.741 36.2853 337.843 35.5813 337.843 34.76C337.843 33.792 337.711 33.0147 337.447 32.428C337.183 31.812 336.699 31.372 335.995 31.108C335.321 30.8147 334.382 30.668 333.179 30.668C332.769 30.668 332.417 30.668 332.123 30.668C331.83 30.668 331.522 30.6827 331.199 30.712C330.906 30.712 330.569 30.7267 330.187 30.756C329.806 30.756 329.337 30.7853 328.779 30.844V39.204C329.161 39.2333 329.498 39.2627 329.791 39.292C330.085 39.292 330.378 39.3067 330.671 39.336C330.994 39.336 331.331 39.336 331.683 39.336C332.065 39.336 332.505 39.336 333.003 39.336ZM351.344 55V24.2H360.276V55H351.344ZM377.206 55.44C375.505 55.44 373.935 55.4107 372.498 55.352C371.061 55.3227 369.682 55.2787 368.362 55.22C367.071 55.1613 365.81 55.1027 364.578 55.044V24.244C366.015 24.1267 367.379 24.0387 368.67 23.98C369.99 23.892 371.31 23.8333 372.63 23.804C373.95 23.7747 375.343 23.76 376.81 23.76C380.535 23.76 383.542 24.3173 385.83 25.432C388.118 26.5173 389.775 28.2333 390.802 30.58C391.858 32.8973 392.386 35.904 392.386 39.6C392.386 43.2373 391.829 46.2293 390.714 48.576C389.599 50.8933 387.927 52.624 385.698 53.768C383.469 54.8827 380.638 55.44 377.206 55.44ZM377.998 48.444C379.113 48.444 380.051 48.1653 380.814 47.608C381.577 47.0213 382.163 46.0827 382.574 44.792C382.985 43.472 383.19 41.756 383.19 39.644C383.19 37.3853 382.985 35.6253 382.574 34.364C382.193 33.0733 381.606 32.164 380.814 31.636C380.022 31.0787 379.025 30.8 377.822 30.8C377.265 30.8 376.722 30.8147 376.194 30.844C375.666 30.844 375.182 30.8587 374.742 30.888C374.302 30.888 373.891 30.9027 373.51 30.932V48.312C373.891 48.312 374.258 48.3267 374.61 48.356C374.962 48.356 375.314 48.3707 375.666 48.4C376.018 48.4 376.37 48.4147 376.722 48.444C377.103 48.444 377.529 48.444 377.998 48.444ZM394.588 39.996C394.588 36.3 395.146 33.264 396.26 30.888C397.375 28.4827 399.076 26.6933 401.364 25.52C403.652 24.3467 406.542 23.76 410.032 23.76C411.059 23.76 412.027 23.7893 412.936 23.848C413.846 23.9067 414.726 23.9947 415.576 24.112C416.427 24.2293 417.248 24.376 418.04 24.552C418.832 24.728 419.624 24.9333 420.416 25.168L418.788 32.296C417.41 31.9733 416.016 31.724 414.608 31.548C413.23 31.372 411.954 31.284 410.78 31.284C409.108 31.284 407.744 31.592 406.688 32.208C405.632 32.7947 404.855 33.748 404.356 35.068C403.887 36.3587 403.652 38.0453 403.652 40.128C403.652 42.1813 403.872 43.824 404.312 45.056C404.752 46.2587 405.412 47.124 406.292 47.652C407.202 48.1507 408.346 48.4 409.724 48.4C410.458 48.4 411.147 48.3707 411.792 48.312C412.467 48.224 413.039 48.1067 413.508 47.96V43.868H409.108V37.004H421.516V52.888C419.727 53.768 417.762 54.4133 415.62 54.824C413.508 55.2347 411.176 55.44 408.624 55.44C405.456 55.44 402.831 54.8827 400.748 53.768C398.695 52.6533 397.155 50.9667 396.128 48.708C395.102 46.42 394.588 43.516 394.588 39.996ZM425.293 55V24.2H448.393V31.68H434.137V36.08H447.249V42.9H434.137V47.652H449.185V55H425.293ZM476.732 25.388L475.148 32.208C474.502 31.9733 473.784 31.768 472.992 31.592C472.2 31.416 471.378 31.2693 470.528 31.152C469.677 31.0347 468.812 30.9467 467.932 30.888C467.081 30.8293 466.26 30.8 465.468 30.8C463.942 30.8 462.813 30.976 462.08 31.328C461.346 31.6507 460.98 32.1787 460.98 32.912C460.98 33.3813 461.126 33.7773 461.42 34.1C461.742 34.4227 462.212 34.716 462.828 34.98C463.444 35.2147 464.25 35.464 465.248 35.728C466.245 35.992 467.433 36.2853 468.812 36.608C470.308 36.9307 471.628 37.356 472.772 37.884C473.945 38.412 474.928 39.028 475.72 39.732C476.512 40.436 477.098 41.2867 477.48 42.284C477.89 43.2813 478.096 44.4547 478.096 45.804C478.096 47.8573 477.538 49.6027 476.424 51.04C475.338 52.4773 473.71 53.5773 471.54 54.34C469.369 55.0733 466.685 55.44 463.488 55.44C462.461 55.44 461.39 55.396 460.276 55.308C459.161 55.22 458.061 55.088 456.976 54.912C455.89 54.736 454.82 54.5307 453.764 54.296C452.737 54.032 451.74 53.724 450.772 53.372L452.444 46.596C453.353 46.9187 454.306 47.212 455.304 47.476C456.301 47.7107 457.298 47.916 458.296 48.092C459.293 48.268 460.276 48.4 461.244 48.488C462.212 48.576 463.136 48.62 464.016 48.62C465.189 48.62 466.113 48.5467 466.788 48.4C467.462 48.224 467.946 47.9747 468.24 47.652C468.562 47.3293 468.724 46.9333 468.724 46.464C468.724 45.9653 468.518 45.5693 468.108 45.276C467.726 44.9533 467.125 44.66 466.304 44.396C465.512 44.132 464.514 43.8387 463.312 43.516C462.138 43.1933 460.76 42.8267 459.176 42.416C458.002 42.0053 456.946 41.536 456.008 41.008C455.069 40.4507 454.262 39.82 453.588 39.116C452.942 38.3827 452.444 37.532 452.092 36.564C451.74 35.596 451.564 34.496 451.564 33.264C451.564 31.9147 451.813 30.668 452.312 29.524C452.84 28.3507 453.646 27.3387 454.732 26.488C455.846 25.608 457.284 24.9333 459.044 24.464C460.804 23.9947 462.916 23.76 465.38 23.76C466.905 23.76 468.372 23.8333 469.78 23.98C471.188 24.1267 472.493 24.332 473.696 24.596C474.898 24.8307 475.91 25.0947 476.732 25.388Z" fill="black"/>
<path fill-rule="evenodd" clip-rule="evenodd" d="M14.9722 12.8333C18.516 12.8333 21.3889 9.96049 21.3889 6.41667C21.3889 2.87284 18.516 0 14.9722 0C11.4284 0 8.55556 2.87284 8.55556 6.41667C8.55556 9.96049 11.4284 12.8333 14.9722 12.8333ZM43.6944 12.8333C47.2383 12.8333 50.1111 9.96049 50.1111 6.41667C50.1111 2.87284 47.2383 0 43.6944 0C40.1506 0 37.2778 2.87284 37.2778 6.41667C37.2778 9.96049 40.1506 12.8333 43.6944 12.8333ZM78.8333 6.41667C78.8333 9.96049 75.9605 12.8333 72.4167 12.8333C68.8728 12.8333 66 9.96049 66 6.41667C66 2.87284 68.8728 0 72.4167 0C75.9605 0 78.8333 2.87284 78.8333 6.41667ZM0 17.7222H87.3889V23.8565C87.1872 23.8411 86.9834 23.8333 86.7778 23.8333C82.3902 23.8333 78.8333 27.3902 78.8333 31.7778V55H66V31.7778C66 27.3902 62.4431 23.8333 58.0556 23.8333C53.668 23.8333 50.1111 27.3902 50.1111 31.7778V55H37.2778V31.7778C37.2778 27.3902 33.7209 23.8333 29.3333 23.8333C24.9457 23.8333 21.3889 27.3902 21.3889 31.7778V55H8.55556V31.7778C8.55556 27.3902 4.99871 23.8333 0.611111 23.8333C0.405489 23.8333 0.201692 23.8411 0 23.8565V17.7222Z" fill="#D85398"/>
<path d="M404.856 86V68.752H407.992V70.256C408.611 69.872 409.219 69.552 409.816 69.296C410.413 69.04 411.011 68.848 411.608 68.72C412.227 68.5707 412.867 68.496 413.528 68.496C414.189 68.496 414.755 68.5707 415.224 68.72C415.715 68.8693 416.131 69.0933 416.472 69.392C416.835 69.6693 417.123 70.0107 417.336 70.416C417.933 70.032 418.541 69.7013 419.16 69.424C419.779 69.1253 420.429 68.8907 421.112 68.72C421.816 68.528 422.563 68.432 423.352 68.432C423.992 68.432 424.557 68.5173 425.048 68.688C425.539 68.8587 425.965 69.0933 426.328 69.392C426.691 69.6907 426.979 70.0427 427.192 70.448C427.427 70.832 427.597 71.2693 427.704 71.76C427.811 72.2293 427.864 72.72 427.864 73.232V86H424.408V74.288C424.408 73.9467 424.365 73.6053 424.28 73.264C424.195 72.9013 424.056 72.5813 423.864 72.304C423.693 72.0267 423.437 71.8133 423.096 71.664C422.755 71.4933 422.317 71.408 421.784 71.408C421.293 71.408 420.813 71.472 420.344 71.6C419.875 71.7067 419.437 71.856 419.032 72.048C418.627 72.24 418.253 72.432 417.912 72.624C417.997 72.88 418.051 73.1253 418.072 73.36C418.093 73.5947 418.104 73.8293 418.104 74.064V86H414.648V74.32C414.648 73.9787 414.605 73.6373 414.52 73.296C414.435 72.9333 414.296 72.624 414.104 72.368C413.912 72.0907 413.645 71.8667 413.304 71.696C412.984 71.5253 412.557 71.44 412.024 71.44C411.597 71.44 411.171 71.4933 410.744 71.6C410.339 71.7067 409.933 71.8453 409.528 72.016C409.123 72.1867 408.717 72.4 408.312 72.656V86H404.856ZM438.552 86.32C437.293 86.32 436.184 86.16 435.224 85.84C434.285 85.4987 433.474 84.9867 432.792 84.304C432.13 83.6213 431.629 82.7467 431.288 81.68C430.946 80.592 430.776 79.312 430.776 77.84C430.776 76.112 430.978 74.6507 431.384 73.456C431.81 72.24 432.386 71.2693 433.112 70.544C433.858 69.7973 434.722 69.264 435.704 68.944C436.706 68.6027 437.794 68.432 438.968 68.432C441.272 68.432 442.968 69.0293 444.056 70.224C445.165 71.4187 445.72 73.36 445.72 76.048C445.72 76.1973 445.709 76.4107 445.688 76.688C445.688 76.944 445.688 77.2 445.688 77.456C445.197 77.4987 444.568 77.552 443.8 77.616C443.053 77.68 442.189 77.744 441.208 77.808C440.226 77.872 439.16 77.9253 438.008 77.968C436.856 78.0107 435.65 78.0427 434.391 78.064C434.37 78.1493 434.36 78.2453 434.36 78.352C434.36 78.4373 434.36 78.5333 434.36 78.64C434.36 79.8133 434.541 80.7627 434.904 81.488C435.266 82.192 435.8 82.7147 436.504 83.056C437.208 83.376 438.093 83.536 439.16 83.536C439.8 83.536 440.461 83.504 441.144 83.44C441.848 83.3547 442.53 83.2587 443.192 83.152C443.853 83.024 444.482 82.8853 445.08 82.736L445.528 85.328C444.888 85.52 444.194 85.7013 443.448 85.872C442.722 86.0213 441.954 86.128 441.144 86.192C440.333 86.2773 439.469 86.32 438.552 86.32ZM434.424 75.728C435.32 75.728 436.173 75.7173 436.984 75.696C437.816 75.6533 438.584 75.6107 439.288 75.568C439.992 75.5253 440.589 75.4933 441.08 75.472C441.592 75.4293 441.976 75.3973 442.232 75.376C442.21 74.3093 442.072 73.456 441.816 72.816C441.56 72.176 441.176 71.7173 440.664 71.44C440.152 71.1413 439.501 70.992 438.712 70.992C438.221 70.992 437.741 71.0667 437.272 71.216C436.802 71.344 436.365 71.5893 435.96 71.952C435.576 72.2933 435.245 72.7733 434.968 73.392C434.69 73.9893 434.509 74.768 434.424 75.728ZM448.637 86V68.752H451.773V70.256C452.477 69.872 453.149 69.552 453.789 69.296C454.429 69.0187 455.08 68.8053 455.741 68.656C456.403 68.5067 457.096 68.432 457.821 68.432C458.888 68.432 459.773 68.624 460.477 69.008C461.203 69.392 461.747 69.936 462.109 70.64C462.493 71.344 462.685 72.208 462.685 73.232V86H459.197V74.288C459.197 73.328 458.963 72.6027 458.493 72.112C458.024 71.6213 457.32 71.376 456.381 71.376C455.891 71.376 455.411 71.4293 454.941 71.536C454.472 71.6427 454.003 71.792 453.533 71.984C453.064 72.1547 452.584 72.368 452.093 72.624V86H448.637ZM465.145 81.68C465.145 80.6347 465.348 79.7813 465.753 79.12C466.18 78.4373 466.82 77.904 467.673 77.52C468.527 77.1147 469.593 76.8053 470.873 76.592C472.153 76.3573 473.636 76.176 475.321 76.048V74.064C475.321 73.1893 475.012 72.528 474.393 72.08C473.796 71.632 472.911 71.408 471.737 71.408C471.311 71.408 470.82 71.4293 470.265 71.472C469.732 71.5147 469.167 71.5893 468.569 71.696C467.972 71.8027 467.364 71.952 466.745 72.144L466.169 69.36C467.087 69.0613 468.057 68.8373 469.081 68.688C470.105 68.5173 471.065 68.432 471.961 68.432C473.519 68.432 474.799 68.6453 475.801 69.072C476.825 69.4773 477.583 70.096 478.073 70.928C478.585 71.76 478.841 72.7947 478.841 74.032V81.648C478.841 82.288 478.937 82.7253 479.129 82.96C479.321 83.1733 479.567 83.28 479.865 83.28C479.972 83.28 480.1 83.2693 480.249 83.248C480.399 83.2267 480.548 83.184 480.697 83.12L481.017 85.68C480.676 85.872 480.303 86.0213 479.897 86.128C479.492 86.256 479.055 86.32 478.585 86.32C477.775 86.32 477.124 86.1387 476.633 85.776C476.164 85.392 475.844 84.816 475.673 84.048C475.14 84.4533 474.564 84.8373 473.945 85.2C473.348 85.5413 472.687 85.808 471.961 86C471.257 86.2133 470.479 86.32 469.625 86.32C468.943 86.32 468.324 86.2133 467.769 86C467.236 85.808 466.767 85.52 466.361 85.136C465.977 84.7307 465.679 84.24 465.465 83.664C465.252 83.088 465.145 82.4267 465.145 81.68ZM468.665 81.424C468.665 82.256 468.868 82.8747 469.273 83.28C469.679 83.6853 470.223 83.888 470.905 83.888C471.417 83.888 471.94 83.8133 472.473 83.664C473.007 83.4933 473.519 83.2693 474.009 82.992C474.521 82.6933 474.959 82.3413 475.321 81.936V78.032C474.297 78.1173 473.38 78.224 472.569 78.352C471.759 78.48 471.055 78.672 470.457 78.928C469.881 79.1627 469.433 79.4827 469.113 79.888C468.815 80.2933 468.665 80.8053 468.665 81.424Z" fill="#D85398"/>
</svg>
