<svg width="852" height="896" viewBox="0 0 852 896" fill="none" xmlns="http://www.w3.org/2000/svg">
<path d="M298 32C298 23.5131 301.372 15.3737 307.373 9.37258C313.374 3.37142 321.513 0 330 0C338.487 0 346.627 3.37142 352.628 9.37258C358.629 15.3737 362 23.5131 362 32V818.752C361.999 825.076 360.124 831.258 356.612 836.517C353.099 841.776 348.107 845.877 342.266 848.301C336.425 850.725 329.997 851.364 323.793 850.137C317.589 848.91 311.887 845.873 307.408 841.408L9.93636 544C6.95631 541.027 4.59197 537.496 2.97876 533.609C1.36555 529.721 0.535156 525.553 0.535156 521.344C0.535156 517.135 1.36555 512.967 2.97876 509.079C4.59197 505.192 6.95631 501.661 9.93636 498.688H10.0644C16.0626 492.708 24.1868 489.351 32.6564 489.351C41.1259 489.351 49.2501 492.708 55.2484 498.688L298 741.632V32ZM490 77.248C490.014 70.9293 491.899 64.7561 495.416 59.5068C498.933 54.2574 503.926 50.1668 509.764 47.7506C515.603 45.3344 522.026 44.7008 528.224 45.9297C534.422 47.1586 540.117 50.195 544.592 54.656L842.064 352C845.044 354.973 847.409 358.504 849.022 362.391C850.635 366.279 851.466 370.447 851.466 374.656C851.466 378.865 850.635 383.033 849.022 386.921C847.409 390.808 845.044 394.339 842.064 397.312H841.936C835.938 403.292 827.814 406.649 819.344 406.649C810.875 406.649 802.751 403.292 796.752 397.312L554 154.496V864C554 872.487 550.629 880.626 544.628 886.627C538.627 892.629 530.487 896 522 896C513.513 896 505.374 892.629 499.373 886.627C493.372 880.626 490 872.487 490 864V77.248Z" fill="#C4C4C4"/>
</svg>
